<?xml version="1.0" standalone="no"?>
<!DOCTYPE svg PUBLIC "-//W3C//DTD SVG 20010904//EN"
 "http://www.w3.org/TR/2001/REC-SVG-20010904/DTD/svg10.dtd">
<svg version="1.0" xmlns="http://www.w3.org/2000/svg"
 width="200.000000pt" height="200.000000pt" viewBox="0 0 200.000000 200.000000"
 preserveAspectRatio="xMidYMid meet">
<metadata>
Created by potrace 1.10, written by Peter Selinger 2001-2011
</metadata>
<g transform="translate(0.000000,200.000000) scale(0.100000,-0.100000)"
fill="#000000" stroke="none">
<path d="M827 1699 c-198 -48 -371 -185 -467 -369 -185 -357 -37 -801 325
-975 212 -102 419 -101 635 2 81 39 108 59 186 137 78 78 98 105 137 186 103
216 104 423 2 635 -146 304 -489 465 -818 384z m310 -35 c434 -89 669 -566
474 -959 -53 -105 -113 -180 -197 -243 -121 -90 -222 -128 -374 -139 -213 -15
-443 87 -574 253 -174 222 -194 529 -50 775 60 102 164 197 275 252 150 74
292 93 446 61z"/>
<path d="M985 1508 c-106 -38 -147 -158 -85 -249 l29 -44 -64 -6 c-72 -6 -115
-34 -115 -75 0 -23 51 -74 75 -74 27 0 27 -26 0 -170 -34 -178 -39 -237 -25
-280 7 -23 30 -56 51 -74 103 -94 322 -55 386 68 14 26 13 31 -5 55 -21 29
-60 38 -93 21 -44 -24 -45 -1 -9 197 41 233 42 264 13 295 -24 25 -30 48 -13
48 5 0 21 20 35 43 46 79 27 176 -44 222 -44 29 -96 38 -136 23z m115 -56 c37
-27 63 -85 55 -122 -16 -73 -94 -122 -160 -100 -109 36 -116 189 -11 236 36
16 81 11 116 -14z m14 -298 c21 -21 21 -22 -19 -245 -39 -217 -42 -261 -19
-280 13 -10 24 -9 67 9 85 36 92 -13 9 -70 -44 -31 -54 -33 -143 -36 l-96 -4
-36 34 c-19 19 -39 47 -43 62 -4 18 6 110 26 237 37 227 36 239 -21 239 -23 0
-59 21 -59 35 0 2 7 11 16 19 23 23 295 23 318 0z"/>
</g>
</svg>
